<svg width="948" height="1144" viewBox="0 0 948 1144" fill="none" xmlns="http://www.w3.org/2000/svg">
<circle cx="572" cy="572" r="572" fill="url(#paint0_radial)" fill-opacity="0.3"/>
<circle cx="572" cy="571.993" r="462.714" fill="#F0F0F0"/>
<g filter="url(#filter0_f)">
<ellipse cx="551.792" cy="531.371" rx="418.999" ry="412.607" fill="#F7F7F7"/>
</g>
<g filter="url(#filter1_f)">
<ellipse cx="528.698" cy="498.585" rx="346.829" ry="348.891" fill="#FBFBFB"/>
</g>
<g filter="url(#filter2_df)">
<ellipse cx="423.742" cy="359.666" rx="167.588" ry="238.92" transform="rotate(50.4831 423.742 359.666)" fill="white"/>
</g>
<g opacity="0.65">
<path d="M566.225 262.485C555.008 259.351 544.918 246.608 541.275 240.628C539.625 237.329 536.903 229.576 539.213 224.957C542.1 219.183 549.935 215.884 558.596 212.585C567.256 209.286 600.661 209.904 612.002 215.884C623.343 221.864 619.219 243.721 614.064 250.113C608.909 256.506 580.247 266.403 566.225 262.485Z" fill="#DADADA"/>
<path d="M318.372 886.86C300.43 879.586 284.982 856.671 279.13 845.47C278.894 845.018 278.739 844.551 278.66 844.047C276.292 829.003 275.976 799.143 293.01 794.276C310.33 789.328 325.795 793.589 331.363 796.338C350.471 804.518 390.13 825.289 395.904 842.94C403.121 865.003 379.614 888.51 377.758 889.335C375.902 890.16 341.26 896.139 318.372 886.86Z" fill="#DADADA"/>
<path d="M387.655 963.567C378.72 961.014 372.378 951.547 369.775 947.204C368.95 945.827 368.617 944.068 368.95 942.498C369.811 938.437 371.415 933.03 373.428 932.224C376.521 930.987 378.583 929.75 392.604 933.462C406.626 937.173 407.657 945.834 410.338 949.133C413.018 952.432 413.018 961.917 410.338 964.392C407.657 966.866 399.203 966.866 387.655 963.567Z" fill="#DADADA"/>
<path d="M484.157 949.958C478.67 948.03 476.438 940.736 475.844 936.286C475.723 935.384 475.92 934.476 476.364 933.683C477.676 931.338 479.646 928.172 480.033 927.688C480.858 926.657 482.714 923.564 491.374 923.152C500.035 922.739 507.87 924.801 511.582 927.688C515.294 930.575 514.881 937.998 514.881 939.029C514.881 940.06 511.17 950.576 506.221 953.051C501.272 955.525 491.787 952.638 484.157 949.958Z" fill="#DADADA"/>
<path d="M626.436 963.567C621.157 955.319 628.635 949.683 633.034 947.896C638.396 945.628 650.067 940.926 653.861 940.266C658.603 939.442 676.749 943.772 683.141 947.896C689.533 952.02 688.708 958.412 684.997 968.103C681.285 977.795 661.902 978.207 656.747 979.238C651.592 980.269 633.034 973.877 626.436 963.567Z" fill="#DADADA"/>
<path d="M790.159 844.383C768.549 837.62 740.465 853.525 729.124 862.323C722.8 867.546 709.535 880.097 707.06 888.51C703.967 899.026 709.741 914.491 713.865 919.853C717.989 925.214 733.66 928.307 746.032 930.369C758.404 932.431 757.167 935.73 775.313 940.266C793.458 944.803 804.593 929.338 821.295 917.791C834.475 908.679 832.421 887.986 829.659 878.386C829.582 878.12 829.487 877.877 829.361 877.63C825.029 869.085 811.461 851.05 790.159 844.383Z" fill="#DADADA"/>
<path d="M833.049 664.783C830.213 664.036 830.089 660.644 830.448 658.58C830.518 658.177 830.574 657.772 830.574 657.363V654.473C830.574 653.029 834.905 651.792 838.204 651.792C841.503 651.792 843.565 652.411 845.833 656.328C847.43 659.087 845.63 661.728 844.145 663.072C843.776 663.405 843.327 663.631 842.852 663.776C840.388 664.533 835.882 665.528 833.049 664.783Z" fill="#DADADA"/>
<path d="M511.788 988.517C507.664 988.187 505.534 985.768 504.984 984.599C504.365 982.881 503.994 979.321 507.458 978.826C511.788 978.207 517.975 979.444 518.799 980.682C519.624 981.919 518.181 986.043 517.975 986.249C517.768 986.455 516.944 988.93 511.788 988.517Z" fill="#DADADA"/>
<path d="M534.058 1003.98C534.492 1002.39 537.179 1001.11 538.946 1000.49C539.393 1000.33 539.873 1000.28 540.321 1000.12C541.388 999.755 542.924 998.827 544.162 998.827C545.638 998.827 547.274 999.858 548.08 999.858C550.142 999.858 551.173 1002.75 551.173 1003.36C551.173 1003.98 550.554 1006.04 548.08 1008.31C546.274 1009.97 542.615 1009.8 540.578 1009.45C540.217 1009.39 539.871 1009.27 539.543 1009.1C537.258 1007.96 533.598 1005.67 534.058 1003.98Z" fill="#DADADA"/>
<path d="M590.762 994.91C588.16 995.594 585.662 998.127 584.259 999.912C583.767 1000.54 583.097 1001.07 582.758 1001.79C582.448 1002.45 582.343 1003.45 582.927 1004.81C584.164 1007.69 584.989 1007.28 586.02 1008.31C587.051 1009.34 588.082 1009.76 589.319 1010.37C590.556 1010.99 593.03 1010.79 594.68 1010.99C596.33 1011.2 598.185 1008.93 599.835 1008.31C601.485 1007.69 602.103 1001.92 602.309 999.446C602.452 997.736 600.655 996.107 599.366 995.253C599.001 995.011 598.591 994.852 598.161 994.771C596.513 994.463 593.487 994.192 590.762 994.91Z" fill="#DADADA"/>
<path d="M572.823 870.777C571.668 870.612 570.417 868.509 569.936 867.478C569.73 866.928 569.359 865.663 569.524 865.003C569.73 864.178 571.379 862.323 573.441 861.704C575.503 861.085 579.421 862.735 580.246 862.735C581.071 862.735 582.927 863.766 582.927 865.209C582.927 866.653 580.865 869.54 580.04 870.364C579.215 871.189 574.266 870.983 572.823 870.777Z" fill="#DADADA"/>
<path d="M215.684 782.111C215.133 782.355 213.505 783.308 211.06 785.258C210.435 785.757 209.943 786.409 209.693 787.169C209.217 788.619 208.786 790.584 209.291 791.596C209.816 792.645 210.983 793.85 211.819 794.611C212.187 794.945 212.616 795.199 213.082 795.372C214.811 796.012 217.74 796.894 219.601 796.751C222.282 796.545 223.932 790.977 224.138 790.565C224.344 790.152 224.344 785.204 222.901 782.729C221.746 780.75 217.608 781.492 215.684 782.111Z" fill="#DADADA"/>
<path d="M242.284 676.536C239.804 677.119 237.222 679.25 235.922 680.52C235.315 681.114 234.846 681.871 234.457 682.627C233.415 684.651 232.114 687.543 232.386 688.496C232.798 689.939 233.623 691.382 235.067 693.032C236.51 694.682 244.139 694.476 245.583 694.063C247.026 693.651 251.563 689.733 253.006 687.052C254.449 684.372 252.181 679.217 251.563 677.567C250.944 675.917 245.789 675.711 242.284 676.536Z" fill="#DADADA"/>
<path d="M921.508 518.174C921.343 515.04 915.253 514.669 912.229 514.875C910.579 515.15 907.115 515.865 906.455 516.525C905.63 517.349 904.187 520.442 904.806 522.711C905.424 524.979 907.486 526.01 908.723 527.453C909.961 528.897 917.59 527.453 919.446 526.422C921.302 525.391 921.714 522.092 921.508 518.174Z" fill="#DADADA"/>
<path d="M875.525 459.201C869.892 455.915 865.545 444.576 863.822 438.491C863.646 437.868 863.605 437.224 863.704 436.584C864.959 428.444 869.475 413.231 878.824 410.538C890.99 407.032 894.496 409.919 909.136 412.393C923.776 414.868 929.343 428.889 930.581 431.776C931.818 434.663 931.405 434.663 930.581 443.942C929.756 453.221 924.807 459.201 921.302 464.768C917.796 470.336 907.692 469.305 896.351 469.305C885.01 469.305 882.948 463.531 875.525 459.201Z" fill="#DADADA"/>
<path d="M830.78 319.191C821.212 313.252 811.809 297.059 808.304 289.704C804.946 284.587 808.55 276.991 810.965 273.525C811.113 273.312 811.28 273.114 811.474 272.942C814.483 270.275 824.627 265.652 843.77 266.61C863.566 267.599 881.161 278.157 887.485 283.312C892.983 288.879 902.826 302.736 898.207 313.623C893.588 324.511 876.212 327.232 868.102 327.232C859.648 327.026 840.347 325.129 830.78 319.191Z" fill="#DADADA"/>
<path d="M281.874 456.726C279.07 457.221 276.582 453.359 275.688 451.365C274.678 449.631 274.646 447.248 274.792 445.896C274.829 445.555 274.916 445.215 275.124 444.941C275.66 444.232 276.913 443.323 279.194 443.323C282.699 443.323 284.349 445.385 286.823 446.623C289.297 447.86 289.297 451.365 288.473 453.633C287.648 455.902 285.38 456.108 281.874 456.726Z" fill="#DADADA"/>
<path d="M252.8 307.231C248.841 307.066 246.751 304.688 246.201 303.52C245.047 300.55 245.72 296.509 246.201 294.859C246.751 293.347 248.8 290.364 252.594 290.529C257.336 290.735 256.305 293.003 259.604 295.478C262.904 297.952 261.048 302.076 260.223 303.52C259.398 304.963 257.749 307.437 252.8 307.231Z" fill="#DADADA"/>
<path d="M399.408 252.794C394.262 252.516 392.272 249.97 391.734 248.148C391.558 247.554 391.407 246.943 391.273 246.338C390.819 244.277 392.698 243.969 393.429 242.69C394.253 241.247 396.522 239.597 404.357 240.835C412.193 242.072 410.956 246.196 410.337 247.227C409.718 248.258 407.038 253.207 399.408 252.794Z" fill="#DADADA"/>
<path d="M459.825 198.976C451.412 197.326 445.872 190.453 444.154 187.222C442.699 184.954 444.154 182.892 446.628 178.974C449.103 175.057 457.763 174.232 473.228 173.613C488.693 172.995 494.261 182.686 495.704 187.222C497.147 191.759 491.786 198.151 486.219 199.801C480.651 201.45 470.341 201.038 459.825 198.976Z" fill="#DADADA"/>
<path d="M706.441 219.802C702.976 219.142 700.873 216.64 700.255 215.472C699.017 212.379 700.255 212.997 700.255 211.554C700.255 210.111 701.286 209.286 704.997 208.255C708.709 207.224 711.183 208.873 713.864 210.523C716.544 212.173 716.751 215.472 716.132 217.328C715.513 219.183 710.771 220.627 706.441 219.802Z" fill="#DADADA"/>
<path d="M590.35 153.818C586.886 152.828 584.782 149.556 584.164 148.044C583.262 146.395 584.782 145.157 586.638 144.333C588.494 143.508 590.35 144.126 593.03 144.333C595.711 144.539 597.567 145.776 599.216 147.219C600.866 148.663 597.979 153.199 596.948 153.818C595.917 154.437 594.68 155.055 590.35 153.818Z" fill="#DADADA"/>
<path d="M625.198 180.418C623.404 178.624 624.371 176.609 625.419 175.434C625.79 175.019 626.159 174.597 626.499 174.157C628.295 171.829 630.726 171.568 631.796 171.757C633.996 172.238 638.518 173.778 639.013 176.088C639.508 178.397 635.645 180.624 633.652 181.449C631.727 181.999 627.342 182.562 625.198 180.418Z" fill="#DADADA"/>
<path d="M590.35 174.85C589.574 174.656 588.237 173.93 587.001 173.182C585.589 172.328 584.981 170.575 586.556 170.082C587.004 169.942 587.473 169.83 587.876 169.695C588.349 169.537 589.03 169.719 589.702 170.02C590.98 170.591 591.762 171.944 591.567 173.33C591.433 174.275 591.091 175.036 590.35 174.85Z" fill="#DADADA"/>
</g>
<defs>
<filter id="filter0_f" x="106.793" y="92.7642" width="889.999" height="877.214" filterUnits="userSpaceOnUse" color-interpolation-filters="sRGB">
<feFlood flood-opacity="0" result="BackgroundImageFix"/>
<feBlend mode="normal" in="SourceGraphic" in2="BackgroundImageFix" result="shape"/>
<feGaussianBlur stdDeviation="13" result="effect1_foregroundBlur"/>
</filter>
<filter id="filter1_f" x="167.869" y="135.694" width="721.658" height="725.782" filterUnits="userSpaceOnUse" color-interpolation-filters="sRGB">
<feFlood flood-opacity="0" result="BackgroundImageFix"/>
<feBlend mode="normal" in="SourceGraphic" in2="BackgroundImageFix" result="shape"/>
<feGaussianBlur stdDeviation="7" result="effect1_foregroundBlur"/>
</filter>
<filter id="filter2_df" x="192.77" y="114.097" width="536.945" height="499.138" filterUnits="userSpaceOnUse" color-interpolation-filters="sRGB">
<feFlood flood-opacity="0" result="BackgroundImageFix"/>
<feColorMatrix in="SourceAlpha" type="matrix" values="0 0 0 0 0 0 0 0 0 0 0 0 0 0 0 0 0 0 127 0" result="hardAlpha"/>
<feMorphology radius="39" operator="dilate" in="SourceAlpha" result="effect1_dropShadow"/>
<feOffset dx="43" dy="4"/>
<feGaussianBlur stdDeviation="5.5"/>
<feComposite in2="hardAlpha" operator="out"/>
<feColorMatrix type="matrix" values="0 0 0 0 1 0 0 0 0 1 0 0 0 0 1 0 0 0 0.25 0"/>
<feBlend mode="normal" in2="BackgroundImageFix" result="effect1_dropShadow"/>
<feBlend mode="normal" in="SourceGraphic" in2="effect1_dropShadow" result="shape"/>
<feGaussianBlur stdDeviation="9" result="effect2_foregroundBlur"/>
</filter>
<radialGradient id="paint0_radial" cx="0" cy="0" r="1" gradientUnits="userSpaceOnUse" gradientTransform="translate(572 572) rotate(90) scale(572)">
<stop offset="0.369792" stop-color="#F1F1F1"/>
<stop offset="0.984375" stop-color="white" stop-opacity="0"/>
</radialGradient>
</defs>
</svg>
