<svg width="6995" height="546" viewBox="0 0 6995 546" fill="none" xmlns="http://www.w3.org/2000/svg">
<path d="M2862.13 116.862C2831.71 135.508 16.7611 76.6357 0 75V546H6995V87C6995 78.4531 5307.12 85.509 4504.66 89.1911C4264.12 90.2948 4102.79 91.1001 4089.77 91.1001C4044.64 91.1001 4007.2 98.4607 3994.11 102.141C3952.01 113.182 3856.75 135.263 3812.6 135.263C3768.45 135.263 3732.07 147.531 3719.4 153.664C3700.18 159.798 3659.06 166.177 3648.26 142.624C3637.47 119.07 3564.36 98.4607 3518.57 91.1001L3517.53 90.0006C3493.47 64.7214 3473.54 43.7706 3417.7 75.1525C3308.54 136.49 3054.68 116.862 3036.28 116.862C3017.88 116.862 2900.15 93.5536 2862.13 116.862Z" fill="#3D59B3" fill-opacity="0.82"/>
<path d="M2896.19 147.285C2855.07 153.159 23.6589 147.285 0 144.837V546L4214.15 545V388.362L4159.08 365.11C4039.16 301.476 3707.53 273.33 3701.41 269.659C3695.29 265.988 3641.45 239.065 3624.31 247.632C3607.18 256.198 3495.82 246.408 3473.79 225.604C3451.77 204.801 3406.49 220.709 3366.11 210.919C3325.72 201.129 3325.72 180.326 3243.73 195.011C3161.74 209.696 3100.55 171.76 3044.26 147.285C2987.97 122.81 2947.59 139.943 2896.19 147.285Z" fill="#0B0F22"/>
<rect x="3405.91" y="97.1792" width="26.668" height="25.9266" stroke="white" stroke-width="3"/>
<rect x="3317.27" y="255.66" width="60.9714" height="50.5017" fill="white"/>
<rect x="3416.89" width="4.70781" height="95.6794" fill="white"/>
<rect x="3416.89" y="124.606" width="4.70781" height="181.555" fill="white"/>
<rect x="3445.57" y="125.885" width="4.70781" height="50.5295" fill="white"/>
<rect x="3490.34" y="172.848" width="4.70781" height="40.7254" transform="rotate(49.26 3490.34 172.848)" fill="white"/>
<rect x="3373.53" y="124.606" width="4.70781" height="181.555" fill="white"/>
<rect x="3256.41" y="156.529" width="117.119" height="11.0837" fill="white"/>
<rect x="3445.57" y="156.529" width="47.8353" height="19.8856" fill="white"/>
<rect x="3373.53" y="122.951" width="91.5191" height="5.868" fill="white"/>
<path d="M2858.88 326.276C2831.52 327.173 17.0071 359.653 0 367.5V546H6995V183C6986.59 185.429 4187.8 189.059 4179.28 187.266C4168.62 185.024 4126.57 196.795 4117.6 193.432C4110.42 190.741 4073.87 194.553 4056.49 196.795C4052.19 199.971 4042.69 205.763 4039.11 203.521C4034.62 200.719 4025.65 200.158 4009.39 200.158C3996.38 200.158 3969.96 206.511 3958.37 209.687C3933.7 215.292 3879.54 229.305 3860.25 240.516C3836.14 254.529 3764.37 267.422 3750.92 267.422C3737.46 267.422 3717.84 272.466 3590.56 286.479C3581.59 287.04 3524.41 326.836 3419.56 310.02C3314.71 293.204 3312.47 316.746 3299.57 310.02C3286.68 303.294 3198.09 308.339 3191.36 310.02C3184.64 311.702 3144.27 320.67 3111.19 316.746C3078.11 312.822 3088.2 315.065 3077.55 320.67C3069.02 325.154 3046.33 326.276 3036.06 326.276C2988.4 325.902 2886.24 325.379 2858.88 326.276Z" fill="#060A18"/>
</svg>
