<svg width="890" height="826" viewBox="0 0 890 826" fill="none" xmlns="http://www.w3.org/2000/svg">
<circle cx="477.235" cy="413.104" r="369.701" transform="rotate(6.78467 477.235 413.104)" stroke="white" stroke-opacity="0.12" stroke-width="3" stroke-dasharray="43 43"/>
<rect x="117.847" y="50.135" width="29.7089" height="89.1268" transform="rotate(32.5083 117.847 50.135)" fill="#6FCEDC"/>
<rect x="127.351" y="60.6663" width="2.35785" height="81.5817" transform="rotate(32.5083 127.351 60.6663)" fill="white"/>
<rect x="286.86" y="157.844" width="29.7089" height="89.1268" transform="rotate(32.5083 286.86 157.844)" fill="#6FCEDC"/>
<rect x="296.366" y="168.375" width="2.35785" height="81.5817" transform="rotate(32.5083 296.366 168.375)" fill="white"/>
<rect x="61.8389" y="138.023" width="29.7089" height="89.1268" transform="rotate(32.5083 61.8389 138.023)" fill="#6FCEDC"/>
<rect x="71.3447" y="148.554" width="2.35785" height="81.5817" transform="rotate(32.5083 71.3447 148.554)" fill="white"/>
<rect x="230.853" y="245.732" width="29.7089" height="89.1268" transform="rotate(32.5083 230.853 245.732)" fill="#6FCEDC"/>
<rect x="240.356" y="256.262" width="2.35785" height="81.5817" transform="rotate(32.5083 240.356 256.262)" fill="white"/>
<rect x="147.673" y="69.1428" width="29.7089" height="89.1268" transform="rotate(32.5083 147.673 69.1428)" fill="#6FCEDC"/>
<rect x="157.177" y="79.6736" width="2.35785" height="81.5817" transform="rotate(32.5083 157.177 79.6736)" fill="white"/>
<rect x="316.688" y="176.851" width="29.7089" height="89.1268" transform="rotate(32.5083 316.688 176.851)" fill="#6FCEDC"/>
<rect x="326.194" y="187.382" width="2.35785" height="81.5817" transform="rotate(32.5083 326.194 187.382)" fill="white"/>
<rect x="91.6641" y="157.03" width="29.7089" height="89.1268" transform="rotate(32.5083 91.6641 157.03)" fill="#6FCEDC"/>
<rect x="101.169" y="167.561" width="2.35785" height="81.5817" transform="rotate(32.5083 101.169 167.561)" fill="white"/>
<rect x="140.291" y="234.283" width="32.5384" height="5.18728" rx="2.59364" transform="rotate(32.5083 140.291 234.283)" fill="white"/>
<rect x="133.012" y="201.833" width="24.9932" height="51.4012" transform="rotate(32.5083 133.012 201.833)" fill="#6FCEDC"/>
<rect x="139.771" y="206.141" width="8.95984" height="51.4012" transform="rotate(32.5083 139.771 206.141)" fill="white"/>
<rect x="179.539" y="231.485" width="24.9932" height="51.4012" transform="rotate(32.5083 179.539 231.485)" fill="#6FCEDC"/>
<rect x="186.302" y="235.793" width="8.95984" height="51.4012" transform="rotate(32.5083 186.302 235.793)" fill="white"/>
<rect x="260.679" y="264.739" width="29.7089" height="89.1268" transform="rotate(32.5083 260.679 264.739)" fill="#6FCEDC"/>
<rect x="270.184" y="275.27" width="2.35785" height="81.5817" transform="rotate(32.5083 270.184 275.27)" fill="white"/>
<rect x="70.4502" y="130.65" width="258.748" height="5.65885" transform="rotate(32.5083 70.4502 130.65)" fill="white"/>
<rect x="171.829" y="130.39" width="66.0199" height="8.48827" rx="4" transform="rotate(32.5083 171.829 130.39)" fill="white"/>
<path d="M218.197 153.789L120.495 307.102C119.307 308.965 116.835 309.513 114.972 308.326L111.31 305.992C109.447 304.805 108.899 302.332 110.087 300.469L207.789 147.156L218.197 153.789Z" fill="white"/>
<rect x="95.2227" y="247.091" width="20.7491" height="14.1471" rx="5" transform="rotate(32.5083 95.2227 247.091)" fill="white"/>
<rect x="155.671" y="285.612" width="20.7491" height="14.1471" rx="5" transform="rotate(32.5083 155.671 285.612)" fill="white"/>
<rect x="146.383" y="272.984" width="24.5217" height="20.2775" rx="5" transform="rotate(122.508 146.383 272.984)" fill="white"/>
<rect x="171.22" y="234.011" width="37.7256" height="20.2775" rx="5" transform="rotate(122.508 171.22 234.011)" fill="white"/>
<rect x="201.378" y="186.687" width="37.7256" height="20.2775" rx="5" transform="rotate(122.508 201.378 186.687)" fill="white"/>
<rect x="103.44" y="290.353" width="32.5384" height="5.18728" rx="2.59364" transform="rotate(32.5083 103.44 290.353)" fill="white"/>
<rect x="109.608" y="259.614" width="56.5885" height="8.48827" rx="4.24413" transform="rotate(32.5083 109.608 259.614)" fill="white"/>
<circle cx="181.55" cy="141.898" r="7.09968" transform="rotate(32.5083 181.55 141.898)" fill="white"/>
<path d="M212.929 144.126C215.661 142.705 218.906 144.773 218.772 147.849L218.717 149.102C218.582 152.178 215.168 153.955 212.571 152.3L211.513 151.626C208.917 149.972 209.085 146.126 211.817 144.705L212.929 144.126Z" fill="white"/>
</svg>
