<?xml version="1.0" standalone="no"?>
<!DOCTYPE svg PUBLIC "-//W3C//DTD SVG 20010904//EN"
 "http://www.w3.org/TR/2001/REC-SVG-20010904/DTD/svg10.dtd">
<svg version="1.0" xmlns="http://www.w3.org/2000/svg"
 width="700.000000pt" height="700.000000pt" viewBox="0 0 700.000000 700.000000"
 preserveAspectRatio="xMidYMid meet">
<metadata>
Created by potrace 1.14, written by Peter Selinger 2001-2017
</metadata>
<g transform="translate(0.000000,700.000000) scale(0.100000,-0.100000)"
fill="#000000" stroke="none">
<path d="M3313 6984 c-98 -17 -213 -54 -303 -98 -36 -18 -189 -103 -340 -190
-151 -88 -306 -177 -345 -199 -78 -45 -516 -297 -670 -387 -205 -119 -682
-394 -725 -418 -345 -192 -561 -501 -607 -867 -9 -76 -10 -2570 0 -2647 36
-301 210 -595 455 -773 49 -36 436 -263 942 -553 19 -11 89 -51 155 -89 66
-39 140 -81 165 -95 25 -14 128 -74 230 -133 102 -59 209 -121 238 -137 30
-17 99 -57 154 -89 55 -32 101 -59 104 -59 2 0 32 -17 66 -38 155 -95 321
-167 433 -187 17 -3 48 -9 70 -13 22 -3 105 -6 185 -6 111 1 166 6 233 23 106
25 238 78 327 131 86 50 373 216 430 248 39 22 300 172 397 228 18 11 92 53
165 95 73 42 248 143 388 224 140 81 271 157 290 168 454 258 516 299 629 420
133 143 252 367 277 523 3 22 8 42 9 45 15 24 19 279 19 1384 0 1156 -2 1321
-18 1395 -3 14 -8 39 -12 55 -34 165 -149 380 -276 512 -118 124 -146 142
-669 444 -250 144 -614 354 -809 467 -195 112 -371 213 -390 224 -19 11 -109
63 -200 116 -332 193 -386 219 -541 258 -127 32 -326 40 -456 18z m349 -555
c41 -11 148 -62 238 -115 25 -15 86 -50 135 -79 50 -29 207 -120 350 -202 382
-220 585 -337 720 -416 66 -38 145 -84 175 -101 73 -41 270 -154 295 -169 46
-28 93 -56 140 -82 207 -114 296 -192 355 -310 67 -133 63 -38 66 -1417 4
-1399 6 -1348 -62 -1487 -45 -92 -141 -191 -240 -248 -387 -224 -595 -344
-624 -362 -19 -11 -42 -24 -50 -28 -8 -4 -137 -77 -286 -164 -149 -86 -291
-168 -315 -182 -24 -13 -200 -115 -391 -225 -382 -221 -444 -255 -503 -271
-177 -46 -322 -24 -495 76 -19 11 -152 88 -295 170 -143 83 -276 160 -295 170
-86 49 -336 194 -350 203 -8 5 -32 19 -52 30 -21 11 -120 68 -220 127 -101 58
-199 115 -218 126 -19 10 -172 98 -340 195 -346 199 -405 247 -471 377 -67
134 -64 58 -64 1465 0 1211 1 1278 18 1335 31 99 78 175 152 250 62 61 108 91
359 235 158 91 307 176 329 189 23 13 62 35 86 49 25 14 68 38 95 55 28 16 67
39 86 50 19 10 298 171 620 357 322 185 609 349 637 364 53 26 147 52 213 58
44 4 147 -8 202 -23z"/>
<path d="M1935 4606 c-166 -78 -211 -295 -89 -428 17 -18 52 -51 79 -73 91
-75 497 -419 519 -440 6 -6 53 -45 104 -87 l92 -77 -268 -228 c-148 -125 -291
-246 -317 -268 -27 -22 -53 -45 -59 -50 -6 -6 -27 -23 -46 -39 -80 -64 -131
-120 -150 -164 -80 -179 56 -386 250 -383 90 1 146 31 284 156 16 14 187 157
209 175 11 8 27 22 36 30 9 9 45 40 81 70 36 30 72 61 81 70 9 8 25 22 36 30
15 13 205 172 293 246 87 74 197 171 208 184 56 65 73 197 35 280 -28 60 -40
72 -238 239 -93 79 -192 163 -220 186 -27 24 -129 110 -225 191 -96 81 -200
168 -230 195 -146 126 -217 180 -259 194 -67 23 -147 19 -206 -9z"/>
<path d="M3654 2904 c-191 -48 -267 -279 -143 -435 35 -44 97 -83 149 -94 19
-5 331 -8 692 -7 647 1 658 1 705 22 188 83 225 335 67 460 -81 64 -54 62
-773 64 -441 1 -669 -3 -697 -10z"/>
</g>
</svg>
