<svg width="80" height="80" viewBox="0 0 80 80" fill="none" xmlns="http://www.w3.org/2000/svg">
<g clip-path="url(#clip0)">
<path d="M69.9556 15.2803L46.4386 1.71768C42.4673 -0.572637 37.5328 -0.57248 33.5614 1.71768L10.0445 15.2803C6.06547 17.5749 3.59375 21.8541 3.59375 26.4478V53.5521C3.59375 58.1458 6.06547 62.425 10.0444 64.7196L33.5614 78.2822C37.5334 80.573 42.4678 80.5722 46.4386 78.2822L69.9555 64.7196C73.9345 62.425 76.4062 58.1458 76.4062 53.5521V26.4478C76.4062 21.8542 73.9345 17.575 69.9556 15.2803ZM70.1562 53.5521C70.1562 55.9183 68.8831 58.1225 66.8334 59.3044L43.3164 72.8671C41.2706 74.0471 38.7292 74.0471 36.6834 72.8671L13.1664 59.3044C11.1169 58.1224 9.84375 55.9183 9.84375 53.5521V26.4478C9.84375 24.0817 11.1169 21.8775 13.1666 20.6956L36.6834 7.13299C38.7294 5.95299 41.2716 5.95346 43.3166 7.13299L66.8336 20.6955C68.8831 21.8775 70.1562 24.0816 70.1562 26.4478V53.5521Z" fill="white"/>
<path d="M37.0304 37.6139L25.424 27.7916C24.1066 26.6766 22.1346 26.8408 21.0198 28.1586C19.9049 29.4764 20.0693 31.4485 21.3868 32.5635L30.174 40L21.3868 47.4364C20.0693 48.5514 19.9051 50.5235 21.0198 51.8413C22.1373 53.1619 24.1098 53.3205 25.424 52.2081L37.0304 42.3858C38.5069 41.1363 38.5027 38.86 37.0304 37.6139Z" fill="white"/>
<path d="M56.5949 46.6967H42.5332C40.8073 46.6967 39.4082 48.096 39.4082 49.8222C39.4082 51.5485 40.8073 52.9477 42.5332 52.9477H56.5949C58.3207 52.9477 59.7199 51.5485 59.7199 49.8222C59.7199 48.096 58.3209 46.6967 56.5949 46.6967Z" fill="white"/>
</g>
<defs>
<clipPath id="clip0">
<rect width="80" height="80" fill="white"/>
</clipPath>
</defs>
</svg>
